<svg xmlns="http://www.w3.org/2000/svg" viewBox="0 0 384.091 384.091"><path d="M307.6 124.415l61.12-61.12c-84.267-84.267-220.8-84.373-305.173-.213 83.946-27.841 177.28-5.547 244.053 61.333zM246.491 216.02l-30.539 30.528 137.632 137.515 30.507-30.55zM63.013 63.508c-84.053 84.373-84.053 220.907.213 305.173l61.12-61.12c-66.879-66.666-89.173-160-61.333-244.053z"/><path d="M63.44 63.188c-.107.107-.107.107-.213.107-.107.107-.107.107-.107.213-8 64.213 24.96 146.88 91.84 213.653l122.24-122.24c-66.987-66.773-149.547-99.84-213.76-91.733z"/></svg>